
<svg version="1.1" xmlns="http://www.w3.org/2000/svg" xmlns:xlink="http://www.w3.org/1999/xlink" x="0px" y="0px"
	 viewBox="0 0 320.8 333.4" enable-background="new 0 0 320.8 333.4" xml:space="preserve">
<g id="Warstwa_8">
	<g id="rightEye">
		<circle  fill="#29ABE2" cx="187.4" cy="128" r="5.8"/>
		<circle cx="187.4" cy="128" r="2.7"/>
	</g>
	<g id="leftEye">
		<ellipse id="rightApple" fill="#29ABE2" cx="130.6" cy="131.4" rx="5.8" ry="5.2"/>
		<circle id="leftApple" cx="130.6" cy="131.5" r="2.7"/>
	</g>
</g>
<g id="Warstwa_7">
	<path  d="M300.6,249.7c0,0-9-4.1-14.2-4.4c0,0-6.3-3.8-11.6-4.2c0,0-12.2-3.5-13.4-3c0,0-8.7-4.9-11.2-3.1
		c0,0-4.8-3.9-12.9-3.1c0,0-4-5.7-5.4-5.3l-6.3-1.8c0,0-4.5-4.9-5.4-3.4l-6.4-1.6l0.9,0.9l5.5,1.3c0,0,1.2-1.4,4.8,3.3l7.6,2.4
		c0,0,2.6,2.2,3.5,4.2l0.9,1c0,0,7.3-1.5,12.7,2.8c0,0,3.8-2.3,11.2,3.3c0,0,7.5-0.8,13.4,3.3c0,0,3.8-1.7,11.8,4.1
		c0,0,6.6,0,13.7,3.9L300.6,249.7z"/>
	<path  d="M44,258.6c0,0-3.2-1.3-6.8-0.5"/>
	<g>
		<path d="M142,188.5"/>
		<path d="M70.2,245.6c0,0,8.4-8.8,19.1-10v0.6c2.7,0.1-10.8,2.4-18.4,9.8L70.2,245.6z"/>
		<path d="M98.4,232.7c0,0,10.4,0.3,12.3-4.6C110.7,228.1,108,231.8,98.4,232.7z"/>
	</g>
</g>
<g>
	<path fill="#E6E6E6" d="M116,225.7c0,0-0.9,10.3,2.2,18.9c0,0,10.4,30.6,12,31.4l27.8,32.6l6,3.3l14.3-17.9l20.2-27
		L206,254c0,0,6.8-14.5,7-32.2L116,225.7z"/>
	<path  fill="#666666" d="M117.4,240.7c0,0,11.6,35.9,13.4,36c0,0-1.2,0.7,1.6,4.7c0,0,5.4,9.1,13.9,16.6
		c0,0,4.4,5.3,4.8,5.7c0.4,0.5,5.6,6.8,7.7,6.6l1.3,0.7c0,0,2.4,4.9,7.8,5.2c0,0,0.3-3.5,0.7-3.2c0,0-0.7-2.2-0.2-3
		c0,0,9.6-4.5,10-6l3.9-10.1c0,0,18.6-26.1,23.3-39c0,0,5.7-12.5,5.7-16.9c0,0-6.3,20.4-17,32.4c-0.1,0.1-0.2,0.2-0.2,0.3
		c-10.9,11.9-25.3,11.7-25.3,11.7s-4.4-0.7-6.2,5.5s-2,19.9-1.1,20.3c0.9,0.5,0.1,0.8,0.1,0.8l-8.2-6.9
		C153.2,302.1,119.7,236.3,117.4,240.7z"/>
	<path  d="M213,220.6c0,0,3.2,19.6-14.8,49.8c0,0-12.8,20.4-15.3,23.6c0,0-2.1,4.2-3.8,10.7l-9.8,6.2
		c0,0-0.8,0.3,0,2.3c0,0-1.4,1.5-0.4,3.5c0,0-4.5,1-9.6-5.4c0,0-5.5-1.8-11.4-10.8c0,0-8.2-7.8-11.9-12.8c0,0-5.9-8.3-5.4-9.4
		c0,0-8.5-18.8-13.4-35.6l-1.3-15.7c0,0-2.8,3.3,4.2,21.4c0,0,6.4,19.5,10.7,28.1c0,0-2.6,2.4,14.4,20c0,0,11.6,14.8,13.5,13.7
		l1.3,0.7c0,0,2.3,4.7,7.8,5.2c0,0,0-3,0.7-3.2c0,0-1-1.9-0.2-3c0,0,9.4-5.1,10-6c0,0,3.1-10.8,3.8-10.4l16.6-25.5
		c0,0,11.1-21.6,11.7-27.4c0,0,3.4-17,2-20.1H213z"/>
	<g >
		<g >
			<path fill="#E6E6E6" d="M229.8,127.5c-0.1-0.2-0.2-0.4-0.3-0.7c-1.8-4.4-5.3-2.8-5.3-2.8l-3.1,5.6
				c-3.5-36.2-12.3-42.3-12.3-42.3c0-5.4-10-24.3-10-24.3c-18.3-19-45.8-18.1-45.8-18.1c-32.2,8.3-37.6,25.4-37.6,25.4
				c2.8,20.8-2.9,32.4-2.9,32.4c9.4,2.4-4.9,29-4.9,29s3-9.3-0.3-0.7c-3.3,8.6,6,16.6,6,16.6c-6.7,9.7-1.9,16.3-1.9,16.3
				c3.7-6.8,8.9-6.9,8.9-6.9c-8.4,9.3-1.6,23.4-1.6,23.4l-11-3.4c-7.4,64.7,107.9,10.5,107.9,10.5l6.6-18.4l3.9-3.8l0.6-6.6
				c0,0,2.2-9.3,2.1-9.7c-0.1-0.4-2.2-8.7-2.2-8.7C227.3,134.5,229.1,129.2,229.8,127.5z M134.6,135.7c0,0-5.3,0.9-8.5,0.7
				c0,0-6.4-0.8-7.5-3c0,0,0.9-3.5,7.2-5.5c0,0,3.9-1.4,7.9-1.4c0,0,3.3,0.4,6.6,2.5c3.2,2.2,4.6,3.7,4.6,3.7
				S136.1,135.6,134.6,135.7z M147.7,169.3c0.1,0.1,0.2,0.1,0.2,0.2C147.9,169.4,147.8,169.4,147.7,169.3z M148.4,162.4
				c0,0-7.3-1-7.3,2.1c0,0,0,0.1,0,0.1c0,0,0-0.1,0-0.1c0,0,0.2-7.8,2.2-7.1c0,0,3.8-3.5,3.2-5.6c0,0,0-0.1,0-0.1c0,0.1,0,0.1,0,0.1
				s8.2-13.5,3.8-25.2c0,0,1.9-4.3,3,0c0,0,1.3,21.6-4.3,25.6C149,152.3,150.6,156.5,148.4,162.4z M172.1,166.9c0,0,0.1-0.1,0.2-0.1
				C172.2,166.9,172.1,166.9,172.1,166.9z M174.3,165.1l-5-3.5c-5.4-5.1-6.9-12.4-6.9-12.4c-0.6-13.7,0-14.5,0.5-15.9
				c0-2,0.1-4.4,0.3-7c1.4-18.9,0,0.7,0,0.7c0.2,4.4,0,5.5-0.3,6.3c-0.1,12.4,2.9,14.3,2.9,14.3c2.2,7.2,9.9,7.5,9.9,7.5
				c0,0,0,0,0,0c-0.1-0.6-2.9-11.2-0.2-0.7c0.1,0.2,0.1,0.5,0.2,0.7c0,0,0,0,0,0h0C178.2,165.1,174.3,165.1,174.3,165.1z M192,131.8
				c0,0-0.1,0-0.2,0c0,0-0.1,0-0.1,0c-0.9,0.2-3.4,0.7,0,0c0,0,0.1,0,0.1,0c-0.7,0.1-3.5,0.6-8.2,0.1c0,0-0.8,0-1.9-0.2
				c0,0,0,0-0.1,0c0,0-0.1,0-0.1,0c0,0-0.1,0-0.1,0c-0.1,0-0.1,0-0.1,0c0,0,0,0-0.1,0c0,0,0,0,0,0c0,0,0,0,0.1,0c0,0,0.1,0,0.1,0
				c0,0,0.1,0,0.1,0c0,0,0.1,0,0.1,0c0,0,0,0,0.1,0c-1.7-0.3-4.3-1-6.5-2.7c0,0,4.8-5.5,10.9-5.7c0,0,0.3,0,0.8,0c0.1,0,0.3,0,0.4,0
				c0,0,0.1,0,0.1,0c0.1,0,0.2,0,0.3,0c0,0,0,0,0.1,0c0,0,0.1,0,0.1,0c0.1,0,0.2,0,0.3,0c0.1,0,0.2,0,0.2,0c0.1,0,0.2,0,0.3,0
				c0.1,0,0.1,0,0,0c-0.1,0-0.1,0-0.3,0c-0.1,0-0.2,0-0.2,0c-0.1,0-0.2,0-0.3,0c0,0-0.1,0-0.1,0c0,0,0,0-0.1,0c-0.1,0-0.2,0-0.3,0
				c0,0-0.1,0-0.1,0c-0.1,0-0.3,0-0.4,0c-0.2,0-0.5,0-0.8,0c0,0,8,1,12.4,5.1C198.5,128.5,196.5,130.9,192,131.8z"/>
		</g>
	</g>
	<g>
	</g>
	<g>
		<path d="M224,172.8c-3.3-7-3.3-8.4-2.7-20.6l-0.5-4.6l-1.2,3.5l-0.8,3.8l-0.7,4.5c0,0-2.2,9.2-1.8,15.7
			c0.3,6.5-0.7,12.5-0.7,12.5s-8.3,3.7-14-6.5c-5.7-10.2-6.3-7-6.3-7l-3.5-2.3l-3.5-2.2c0,0-4.5,0.3-5,0.5c-0.5,0.2-1.5,1.7-3.8,2
			c-2.3,0.3-2.7,0-5-1.2c-2.3-1.2-4.7-1.8-4.7-1.8s-2.8,0.3-2.8,1c0,0.7-3.5,0.7-3.6,1.3c-0.2,0.7-0.2,2.2-1.2,2.7s-1.8,1.7-4.5-0.2
			c-2.7-1.8-2.7-1.8-2.7-1.8s-2.3-1.3-4.7,0.2c-2.3,1.5-3.5,3-10.2,4s-6.7,2-6.7,2s-1.7-0.2-5.5,2.8c-3.8,3-4.3,5-4.3,5l3.5-0.2
			c0,0-1,2.7-2.3,2.5c-1.3-0.2,2.7,1.3,2.7,1.3s-3.5,1.5-4.5,0.7c-1-0.8,1.5,2.5,2.8,2.5c1.3,0-0.3,3.2-3.7,1.8
			c-3-1.2-0.3,2.9,1.5,3.9c-1.5-0.3-4.4-0.9-4.4-0.9l-5.3-1.7c0,0,1.5-1.5,3.2-1.3s-0.5-2.2-3.3-1.5l1.8-2.8c0,0-1.8-2.8-4.7-1.3
			c-2.8,1.5-1.5-9.7-1.5-9.7l2.2-2.7c0,0-4.3,2.2-5.2,10.5v-11.7l-0.7-10.3l-2.3-11.2l-0.5,10c0,0,0.3,5,0,8.3
			c-0.3,3.3-0.7,6.7-0.7,6.7l-0.8,3.5c0,0-1.7,3.2,0,6.8c1.7,3.7-1.4,2.8,0.5,4.8s2.2,3.7,2.2,3.7l2.5,4.2l3,3.5l-4.5-1.3
			c0,0,0.1,2,2.4,2.9c-1.4-0.4-4.1-1.2-2.4,0.1c2.6,2,5.6,2.7,5.6,2.7s-3.3,1.5-6.2-0.7s3.2,5.2,7,3.5s1.8,5.7-5.5,1.5
			c-6.3-3.6,5.1,6.1,8.7,6.7c-1.1,1.5-2.6,4.1-2.6,4.9c0,1.5,1.7,6.5,1.7,6.5s-0.2-3.2,2.1-5.7s3.2,7,1.5,9.2
			c-1.7,2.2-2.5,4.3-2.5,4.3s4,0,6.3-3.7c2.3-3.7,1.8-2.7,1.8-2.7s0.7,4.8-3.5,10.8c0,0,4.3-1.3,6.7-6.2c0,0-0.5,4.7-3,8.3
			c0,0,3.4-1.5,5.1-3.1c-1.1,2.4-2.7,6.4-2.7,6.4s1.8-0.2,4.8-3.2c-0.9,1.1-2.7,3.6-2.4,7.1c0,0,4.3-7.8,7.3-6.8c0,0-4.7,5-5.2,10
			c0,0,4.2-1.6,6.8-4c-1.5,2.8-3.3,6.5-3.3,6.5s0.5,2.6,2.9,5.6c-0.5-0.9-1.2-3.9,3.4-12.4c-0.4,0.8-2.7,5.6,0.1,10.4
			c0,0,0.2-7.2,3.2-7.3c0,0-2.3,5.7,1.2,10.5c0,0-0.2-7,2.2-8.5c0,0-1.5,4.8,1.8,9.7c0,0-0.3-7.8,2.5-10c0,0-2.3,8.5,1.2,12.7
			c0,0-0.2-8.7,3.7-11c0,0-1.3,4.3,0,8c0,0,2.8-8.2,3.7-7.5c0,0-1.3,3.8,0,8c0,0,1.7-5.5,4.7-7s0,0.8,0,0.8s2.8,3.5,2.3,6.7
			c0,0,3-1.8,3.3-6.2c0,0,1.7,1.3,2.3,4c0,0,0.8,0.7,2.3-2.5l1.7,2.7c0,0,2-2,0-4.3c-2-2.3,5.2,3.3,5.2,3.3s1.2-1.5-1.2-6.2l6,6.5
			c0,0,3.2-3.5,0-8.2c0,0,3.5,1.3,4.8,5.5c0,0,3.2-3.5,1.2-8.3c0,0,3.7,2.8,3.8,5.5c0,0,1.8-4.8,1.7-7.5c0,0,1-1,2,5.7
			c0,0,3-8.5,2-12.5c0,0,1.7,4.3,1.7,7.5c0,0,3.7-5.2,2.8-13.7s0.1-6.7,0.1-6.7l1.2,7c0,0,1.5-3.8,1.3-7.2c-0.2-3.3-0.2-3.3-0.2-3.3
			s1.3,2.7,2,5.7c0,0,1.5-4.5,0.8-7.7c0,0,1.2,0.3,3.2-1c2-1.3-1-1.8-1.8-2.2c0,0,1.2,0,3.8-2.2s-0.3,0-3.7-1.3
			c-3.3-1.3,4.8-4.7,6.5-3.7c0,0-3-4.5-3.7-4.5c0.3,0,0.7,0,0.7,0s2.8-2.2,4.3-0.2c0,0-0.8-3.7-4.8-3.5c0,0,2.3-4.3,4.8-3.2
			c0,0-1.3-2.7-2.3-3.2c0,0,1.7-3.2,4-2.3c0,0-0.8-4.3-2.8-4.2s-2,0.2-2,0.2s2.2-3.2,4.8-3c0,0-3.5-3.3-2.3-4.5c1.2-1.2,5,5,5,5
			s1.2-6-1.8-10.3l2.1,1.3C225.4,184.9,227.4,179.8,224,172.8z M186.2,183.7c-0.6,0.2-0.6,0.2-0.6,0.2s0.8,0.2,1,1.6
			c0,0-0.9,0.5-1.4,0.4s-0.3,0-0.3,0s0.5,0.1,0.4,1l-1.4,0.4c0.2,0,0.4,0.2,0.7,0.5l-1.8,0.4l1.5,0.7c0,0-0.6,0.4-2.1,0.4
			c0,0,1,0.8,1.6,0.9c0.2,0,0.3,0,0.2,0c-0.1,0-0.1,0-0.2,0c-0.6,0.1-1.9,0.4-2.1,0.3c0,0,0.2,0.9-0.9,1.3c0,0-0.9,0.3-1.8,0
			c0,0,0.4,0.3-0.6,1.3c0,0-1.3,0.3-1.8,0c0,0,0.3,1.1,0,1.3s-0.8-0.5-0.9-0.8c0-0.3-1,0.3-0.9,0.9s-1.1-1.1-1.1-1.1s-1.3,0.6-1,1.6
			c0.4,1-0.9-1.4-0.9-1.4s-1.5,1-1.4,1.4c0.2,0.5-1.5-0.2-1.5-0.2l0.3-1.3c0,0-1.1,0.5-1.6,1c-0.5,0.5-0.8,0.7-0.8,0.7l-0.8,0.8
			c0,0-0.9-1.2-0.8-1.6s-1,0-1.5,0.9c0,0-0.7-1-1.4-1c-0.7-0.1-1.3,1.8-1.3,1.8l-1-1.2l-0.3,0.8l-0.7-0.6l-0.8,0.8l-0.5-0.8
			l-0.8,1.1l-1.4,0.6c0,0-0.2-1.2,0.1-1.4c0.3-0.2-1.4,0.2-1.9,1.2c-0.5,1-0.6-1.3-0.6-1.3s-0.9-0.1-1.9,1s-1.3,2-1.3,2l-0.6-1.6
			c0,0,0.2,0.4-1,0.6c-0.8,0.1-0.8-0.8-0.7-1.4c-0.2,0.3-0.6,0.8-1.7,0.9c-2,0.3,0.6-2.5,0.6-2.5s-2.9,0-4,1c-1.1,1-0.4-2.1,0-2.3
			c0.3-0.2-1.3,0-1.7,0.3s0.2-2,0.5-2.1c0.3,0-1.2,0.1-1.8-0.7c-0.5-0.8-0.3-3.1-0.3-3.1l0.9-1.5c1.4-0.5,2.9-1.3,2.9-1.3l-0.7,1.3
			c0,0,1.7-1,1.8-1.1s0,0.9,0,0.9l1.1-0.9l-0.2,0.9l1-0.8v0.8l1.1-0.8l0.2,0.5l1.2-0.5l0.2,0.6c0,0,0.8-1.2,0.9-1
			c0,0.2,0.3,1.1,0.3,1.1l0.8-0.8c0,0-0.3,0.8,0,0.7c0.3,0,1.1-0.8,1.1-0.8s-0.3,0.8,0,0.8c0.3-0.1,1-0.8,1-0.8l0.2,0.8l0.4-0.6
			l-0.2-0.4h0.5l-0.3,0.4l0.3,0.5l1.2-0.8h1.1V184l0.7,0.5c0,0,0.4-1.9,0.6-1.1c0.2,0.8,0.8-0.2,0.8-0.2s0.3,0.6,0.3,0.8
			s0.7-0.5,0.8-0.8c0-0.3,0.6,0.3,0.5,0.5s0.5-0.6,0.5-0.9s0.3,1.3,0.3,1.3l0.6-1.3v1c0,0,0.6-0.8,0.7-1.1c0-0.1,0.1-0.2,0.1-0.2
			c0,0,0,0.1-0.1,0.2c-0.1,0.3-0.1,1,0.1,1c0.3,0,0.6,0.1,1.2-1c0,0,0.5,0.5,0.4,1.2c0,0,0.5-0.4,0.8-0.8l0.5,0.6
			c0,0,0.6-0.3,0.7-0.8l0.5,0.8l0.7-0.7l0.9,0.3l0.8-1l0.9,1V182c0,0,1.5,0.8,1.5,2c0,0,0.8-1.8,0.6-2.5c0,0,0.9,1.3,0.8,2.1
			c0,0,0.5-0.4,0.7-1.3s0.2-0.8,0.2-0.8l1.1,1.3l0.2-1.3c0,0,1.1,1,1.1,1.7c0,0,1.1-1.7,1-2.1c0,0,0.3,1.2,0.5,1.7
			c0.2,0.5,1.1-0.9,1.1-0.9l0.2,0.1c0,0,0.8,0.4,0.8,1.4c0,0,0.7-0.4,1-0.9s1,0.2,1.2,0.7c0,0,2.5,0.1,3.1-0.7c0,0,0.9-0.6,1.3-0.4
			c0.4,0.2,0.9,0.2,1.1,1.6C187.1,183.7,186.8,183.4,186.2,183.7z"/>
		<path d="M137,265.8c-0.1-0.1-0.2-0.2-0.3-0.4C136.9,265.7,137,265.8,137,265.8z"/>
	</g>
</g>
<g>
	<path  fill="#D6D6D6" d="M139.5,187.8l6,0.8l12.4-0.8l8.5-0.6l6.1-0.9h5.4l5.1-0.6l2.4-2.8l-5.7,1.4l-12,0.5
		l-2.9-0.3c0,0-3.9,2.5-9.1,0.6l-12.3,0.8l-2.8,0.8L139.5,187.8z"/>
	<path  fill="#999999" d="M139.5,187.8c0,0,3.1,4.3,11.9,8.3c0,0,24-1.1,24.3-2.5l9.7-9.1l0.2-0.2
		c-3.1,1.5-11.2,1.9-19.2,2.3l-24.7,1.2L139.5,187.8z"/>
	<path  display="none" stroke="#000000" stroke-width="5.000000e-002" stroke-miterlimit="10" d="M192.9,127.6
		c0,1.8-0.9,3.4-2.2,4.4c-0.9,0.7-5.8,0.7-6.7,0c-1.3-1-2.1-2.6-2.1-4.4c0-1.3,0.4-2.6,1.2-3.5c1.1-1.1,6.2-0.5,9.3,1
		C193,125.5,192.9,126.7,192.9,127.6z"/>
	<path  d="M140.6,187.6c0,0-0.5-1.1-1-1c-0.5,0.2,0,1.2,0,1.2s0.8,0.6,1.4,0.7s1.3,0.6,3.9,0.6s6.7-0.4,6.8-0.4
		s6.3-0.2,6.3-0.2l6-0.2l4.2-0.4l3.5-1.3h3.3h4.6l3-0.3l1.9-1l0.6-1.3c0,0,2.2-2.1-1.4-0.6c0,0,0.4,0.8-1.3,1.5s-4.3,0.3-4.3,0.3
		l-4,0.2c0,0-3.3,1-8.6,1c0,0-3,1-9.3,0.9c-6.3-0.1-8.5,0.5-10,0.4C144.6,187.6,140.6,187.6,140.6,187.6z"/>
	<path  d="M174.3,151.9c0,0-0.2,1,2.3,3.4c0,0,0.4,1.7,0.7,4.3c0.3,2.6,0.4,1.1,0,4.6c0,0-1.7,2.5-6,4.6
		c0,0-2.8,0.6-1.3-1.4c0,0-3.9,2.9-4.7,0.2c0,0-1.5,1.6-4.3,2.8c0,0-3.6,2.4-7.5-0.4l-3.7-2.1c0,0-4.1,1.6-4.7-0.3
		c0,0-2.1,0.5-3.5-1.9s0.4-7.1,0.4-7.1l1.5-2.3c0,0,2.4-1.3,2.7-2.8c0.3-1.6,0.3-1.6,0.3-1.6s0.4,1.8-0.4,3.6c0,0-0.4,1.1-0.8,1.6
		c-0.3,0.5-2,0.4-2,0.4s-3,3.3-1.3,7.6c0,0,0.2,1.3,2.6,2.1c0,0-0.8-1.4,2-1.4l2.8,1.6l4.4,2.4c0,0,2.9,2.2,6.8,0.4
		c3.9-1.8,4.4-3.1,4.4-3.1s0.8-1.3,3.3-2.3c2.4-1,3.9-0.9,3.9-0.9s1.4-0.1,2.1,1.3c0,0,2.2-1.8,2.3-3.2s-0.3-4-0.7-4.4
		c-0.4-0.4-1.5-1.8-1.5-1.8s-1.2-1.3-0.6-2.1C174.5,152.8,174.3,151.9,174.3,151.9z"/>
	<path  d="M125.3,115.6c0,0-2.6-0.9-4.7-0.1c0,0,1.3,0.1,2.4,0.8c0,0-3.6-1.1-5.1-0.3c0,0,1.9,0.1,2.8,0.6
		c0,0-5.1-0.5-6.6,1c0,0,2,0.1,2.5,0.4c0,0-4.1,0.7-6.3,2.4c0,0,3.7-1.3,4.5-1c0,0-3.2,2.2-4,3c0,0,1.5,0.3,1.6,0.5
		c0.1,0.3-2.1,0.1-3.5,2.1c0,0,1.4,0,1.6,0.5c0,0-0.6,0.4-1.5,0.6c0,0-0.1,0-0.1,0c-1,0.2,0.5-0.1,0.9,0.5c0,0-2.2,0.5-2.9,1.3
		c0,0,2.4,0.3,3.4,0c0,0-1.3,1.3-2.7,1.9c0,0,2.1-0.7,2.4-0.6c0.3,0.1-1.8,1.8-2.6,1.8c0,0,1.5-0.2,1.8-0.1c0,0-0.1,0.3-0.6,0.8
		c0,0,0.4-0.5,1.1-0.6c0.8,0,2.6-1.4,2.6-1.4l-1,0.4l2.6-1.8c0,0-0.8,0.3-1.1,0.3c-0.3,0,1.5-1.9,2.4-2c0,0-0.5-0.3-0.7-0.4
		c-0.2-0.1,2.3-1,2.3-1l-1.3,0c0,0,1.5-2,2.9-1.6l-0.3-0.5c0,0,2.5-1.2,3.6-0.7c0,0-0.1-0.7-0.4-0.6c0,0,3.5-1.5,4.7-0.6
		c0,0,0.1-0.1-0.1-0.4s2.8,1.7,3.8,1.1c0,0-0.9,0-0.9-0.2c0-0.1,1.5,0,2.1-0.6c0,0,0,0.6-0.3,0.8c-0.2,0.1,0.6-0.3,0.6-0.5
		c0-0.2,2.6,1.1,3.3,0.3l-0.1,0.5c0,0,2.3,0.2,3.7-0.4l-0.3,0.4c0,0,0,0.3,0.8-0.2c0,0,0.9,0,1.3,0.1c0,0-0.3-0.3-0.3-0.4
		c0-0.1,0.7-0.2,1.1,0.3c0,0-0.1-0.2-0.1-0.5s0.1-0.2,0.1-0.2s0.6,0.4,2.2-1.4c0,0-0.2,0.1-0.4,0.1c0,0,0.9-1,0.6-2.1
		c0,0-0.1,0.5-0.3,0.6s-0.1,0-0.1,0s0.6-0.9-0.1-1.5c0,0,0.3,0.3,0.1,0.4c0,0-1.3-0.8-1.2-1.1c0,0-0.3-0.1-0.3,0.1
		c0,0,0-0.7-0.5-1.2c0,0,0.3,0.4,0.2,0.5c0,0-1.2-1.7-2-1.4c0,0,0.3,0,0.4,0.2c0,0-2.5-0.9-3-0.5c0,0,0.2-0.2,0.2,0.3
		c0,0-2-1.1-2.9-0.8c0,0,0.3,0,0.4,0.2c0,0-2.9-0.4-3.6-0.3c0,0,0.2,0.1,0.3,0.3c0,0-4.4-0.2-5.6,0.4c0,0,0.7,0,0.8,0.1
		c0,0-0.8,0.3-1.1,0.2C124.9,114.8,125.5,115.2,125.3,115.6z"/>
	<path  d="M144.8,118.6c0,0,0.7-1.3-2.8-3.8c0,0,4.1,0.7,4.5,3.1c0,0-0.3-3.2-2.2-3.1c0,0,2.8-0.6,3.3,2.8
		c0,0,1.8-2,2.1-3.1c0,0-1.1,2.3-0.8,3.6c0,0,0.4-2.2,1.4-2.3c0,0-1.1,2.3-1,4.4c0,0-0.7-1.4-2.4-1.5c0,0-0.4-0.8-1.6,1.5
		c0,0,0.6-1.6,0.3-2.3c0,0-1.7,2.4-1.5,3c0.2,0.6-0.2-0.6-0.2-0.6S144,118.2,144.8,118.6z"/>
	<path  d="M143.6,117.8c0,0-4.3-5-7-4.3c0,0,3.4-1.2,7.6,4.3c0,0-0.7,1.3-1.1,3.3C143.1,121.2,143,117.8,143.6,117.8z
		"/>
	<path  d="M210.3,126.6c0,0,1.6-0.8,3,1c0,0-0.5-2-2.7-2.3c0,0,1.3-0.6,2,0c0,0-0.8-1.5-3.8-1.8c0,0,1.9-0.8,3,0
		c0,0-1-1.5-1.7-1.5c-0.7,0,0.2,0,0.2,0s0.9-1.1,1.4-0.8c0,0-1.2-0.3-2-0.7c0,0-1.9-1.8-1.5-2.6c0,0-1.9,0.5-2.6,0
		c0,0-1.9-1,1.3-2.7c0,0-3.2,0.9-4.2,0.8c-0.1,0-0.2,0-0.2-0.1c-0.6-0.3,0.1,0,0.1,0s1.5-1.5,3.3-1.2c0,0-1.9-1.2-4.1-1.2l-4.1,0.4
		l5.8-0.9c0,0-2.8-1.6-6.5-0.5c0,0,1.3-0.9,1.5-0.8c0.2,0.1-0.9-0.4-2.5,0.4c0,0,0.9-1.5,2-1.5c0,0-2.9-0.2-5,0.9
		c0,0,0.5-0.9,0.9-1.2c0,0-1,1.1-1.9,1.1c0,0,0.4-0.9,0.8-0.9c0.3,0-0.3,0-0.3,0s-1.2-0.1-4.8,1.5l2-1.5c0,0-0.9-0.5-3.8,0.8
		l1.4-1.1c0,0-1.9,0.4-3.2,1.7l2.5-2c0,0-1.2,0.1-3.5,1.9c0,0-1.5,1-2,1c0,0,1-1.3,1.5-1.2c0,0-1.1-0.5-2,0V111c0,0-1.4,0.9-2.1,2.4
		V112c0,0-1.3,1.4-1.1,3.3l-0.3-2.3c0,0-0.8,1.2-0.4,3l-0.5-2.1c0,0-0.5,0.9,0,3.1l-0.5-2.9c0,0-0.5,1.6,0.2,3.8l-1.2-1.6l0.7,1.6
		c0,0-1.1-0.7-1.7-0.6c0,0,1.6,1.1,1.9,1.5c0,0-2.7-1.8-3.5-1.5c0,0,2.8,1.5,3.1,1.9c0,0-3.3-1.4-4.1-1.3c0,0,3.3,1.2,3.6,1.8
		c0,0-0.3,0.4-2.1,0.5c0,0,0.8,0.4,2,0.4l2.6-0.9l-1.4,1c0,0,1.3,0.1,4.3-1.9s0.2,0.2,0.2,0.2s3.6-1.6,5.4-1.5c0,0-0.1,0.4-1.7,0.8
		c0,0,3.8-1.1,4.5-0.7l-1.3-0.3c0,0,1.9,0.6,4.9,0.3c0,0-0.9,0.2-1.2,0.8c0,0,3-1.8,5.5-1.1c0,0-1,0.2-1.3,0.6s0.2,0.2,0.2,0.2
		s2.2-1,4.8,0.2c0,0,1.1,0.1,2.4,1.3l-1.9-0.3c0,0,2.5,0.4,4,2.9c0,0-0.7-0.8-1.1-0.8c0,0,2.9,2.6,3.3,4.1c0,0,0.3,1-0.3,1.5
		c-0.6,0.6,0.1,0.2,0.1,0.2S211.8,123.9,210.3,126.6z"/>
	<path d="M174.5,116.6c0,0,0.3-4.3,3.7-5.3c0,0-2.7,0.1-4.6,4.9l2.3-5.1l-3.1,5.1c0,0,0.3-2.9,1.1-3.9l-1.7,3
		c0,0-0.4-0.4,0.3-1.5c0,0-1.6-0.5-3.6,4s0.4,0,0.4,0s0.3-0.2-0.3,2h0.3c0,0,0.1-1,0.7-1.4s0.1,0.4,0.1,0.4s-1.3,2.3-0.2,1.6
		c0.5-0.3,0.2-1.6,0.8-1.6l3.1,0.7l-3.1-1.7c0,0,0.5-0.9,1.4-0.6c0.9,0.3-1.3-0.3-1.3-0.3L174.5,116.6z"/>
	<path  d="M146.8,119.2c0,0-1.4,0.6-2.1,3.6c0,0,1.5-2.9,2.4-3c0,0-1.7,1.6-1.2,3c0,0,1-2.7,2.2-3.1
		c0,0-1.7,2.7-1.3,3.6c0.4,0.9,0.3,0,0.3,0s0.3-2.3,1.8-2.9C148.9,120.3,148,119,146.8,119.2z"/>
	<path  d="M168,117.8c0,0-0.8-5.6-4-6.2c0,0,3.1,1.9,3.4,7.6c0,0-1.1-5.7-6.5-5.3c0,0,3.5-0.4,6.3,7.6
		c0,0-0.4-2.8-2.4-3.5c-0.1,0-0.2-0.1-0.3-0.1c-2.3-0.5,0.1,0,0.1,0s3.4,5.3,2.1,4.9c-1.3-0.4,5.2-3.1,8.6-1.4c0,0-6.3-1.1-7.2-0.6
		C168,120.9,166.6,119,168,117.8z"/>
	<g>
		<path  d="M116.1,132.5c0,0,0,0,0.1-0.1C116.2,132.5,116.2,132.5,116.1,132.5C116.2,132.5,116.2,132.5,116.1,132.5z"
			/>
		<path  d="M134.5,136.9c0.1,0.1,0.2,0.2,0.2,0.2C134.7,137,134.6,137,134.5,136.9z"/>
		<path  d="M137.1,135.9c-0.1,0.2-0.2,0.3-0.2,0.3C137,136.1,137,136,137.1,135.9z"/>
		<path d="M140.1,126.8C140.1,126.8,140.1,126.9,140.1,126.8C140.2,126.7,140.2,126.6,140.1,126.8z"/>
		<path  d="M116.1,132.5C115.8,133.2,116.1,132.7,116.1,132.5L116.1,132.5z"/>
		<path d="M143.3,127.5c0,0.1-0.1,0.2-0.1,0.3C143.4,127.6,143.5,127.3,143.3,127.5z"/>
		<path  d="M146.8,130.8c-0.1,0-0.1,0.1-0.2,0.1C147,130.7,147.2,130.6,146.8,130.8z"/>
		<path id="leftBorder" d="M146.1,132.3c0,0-0.1-1,0.5-1.4c-0.5,0.2-1.2,0.6-1.2,0.6s0.6-0.8,1.1-0.9s-1.1,0.1-1.3,0.3
			c-0.2,0.3,0.1-0.9,0.4-1.3c0.3-0.3-0.8,0.7-1,1.2c0-0.5,0-1.6,0.4-1.8c0,0-0.9-0.1-1.2,1.1v-2l-0.5,1.4c0,0-0.2-1-0.1-1.5
			c-0.1,0.3-0.4,0.8-0.6,0.9c-0.4,0.3,0.2-1.5,0.2-1.5s-0.7,0.9-1.4,1c-0.7,0.1,0.8-1.2,0.8-1.2s-0.8,0-1.7,0.3
			c-0.1,0-0.2,0.1-0.3,0.1c-0.1-0.1-0.3-0.3-0.2-0.6c-0.1,0.2-0.3,0.6-0.3,0.6v-2c0,0-0.4,0.9-0.4,1.7l-0.7-1.9v1.8l-0.7-1.8v1.2
			l-0.5-1.5c0,0-0.2,1-0.2,1.8l-0.8-2.3v1.4l-0.6-1.8c0,0-0.4,0.1-0.3,1.1l-0.8-1.1v1.1l-0.8-0.9c0,0,0.5,1.2,0.3,1.1s-1-1-1-1
			s0.1,0.6,0.3,1c-0.3-0.3-0.8-0.9-0.8-0.9s0.1,0.8,0.3,1.1c-0.3-0.4-1.3-1.3-1.3-1.3s0.5,0.8,0.8,1.2c-0.5-0.4-1.5-1.1-1.9-1.3
			c-0.7-0.3,1.5,1.3,1.5,1.6c0.1,0.3-1.3-1-1.3-1l0.4,1l-1-1.3v1.1l-0.9-1.1c0,0,0.6,1.1,0.4,1.1c-0.2,0-1-0.7-1.1-1
			s-0.1,0.8,0.3,1.5s-1.2-1.5-1.2-1.5s-0.2,0.6,0.4,1.3c0.5,0.8-1-1.2-1-1.2l0.9,1.5l-2.1-1.5c0,0,1.2,1.4,1.6,1.8s-1.3-0.1-2.1-1.4
			c0,0,0.3,1.2,0.6,1.7c0.3,0.4-0.6-0.7-1.1-1.4c-0.1-0.2-0.2-0.3-0.2-0.4c-0.2-0.6,0.2,1.5,0.5,2.1c-0.2-0.3-1.1-1.4-1.4-2
			c-0.1-0.1-0.1-0.3-0.1-0.3c-0.1-0.5-0.1,1.2,0.6,2.4l-1.3-2c0,0,0.1,1.6,0.4,2.4s-0.1,0.1-0.1,0.1l-0.9-2c0,0-0.2,2.1,0.1,2.5
			c0,0-1.5-0.8-4.7,0.7c0,0,3.2-0.9,4.2-0.1c0,0-3-0.1-4.9,1c0,0,4.8-0.9,4.8-0.4c5.9-3,10.6-2.9,10.6-2.9
			c5.4-0.2,11.8,6.1,11.8,6.1c-21,7.6-26,0.8-26,0.8c1.3-3.1,3.6-4.1,3.6-4.1s-2.7,0-5.2,1.4c0,0,2.5-0.6,2.8-0.4c0,0-3.1,1.6-3.7,2
			c0.4-0.1,2.7-0.4,2.8-0.2c0.2,0.2-1.7,1.1-1.9,1c0.1,0,0.2,0,0.2,0l0.8,0.3c0,0-0.4,0.6-1.1,0.8c0,0,0.8,0.2,1.6,0.3
			s5,1.3,4.9,1.9l0.8-0.4l0,0.4l0.6-0.4v0.6l0.9-0.6l-0.2,0.8c0,0,0.5-0.7,1.2-0.6c0,0,0.3,0.3,0.3,0.6c0,0-0.1-0.4,0.3-0.5
			c0,0,2.3,0.4,2.6,0.8c0,0-1.1-0.8-1.4-0.8c0,0,1.5-0.3,2.9,0.5l-0.8-0.9c0,0,1.3,0.6,1.6,1.1c0,0-0.4-1.1-0.5-1.1c0,0,0.1,0,0.1,0
			s1.9,0.3,2.6,0.6c-0.3-0.2-0.9-0.6-1.2-0.6c0,0,2.4-0.3,3.2,0.2c0,0-0.9-0.7-1.7-0.7l2.4-0.5c0,0,0.2,0-0.1,0.5
			c0.2-0.3,0.7-0.7,1.6-0.9l-0.3,0.7c0,0,2-1.7,2.6-1.4l0.3,0.8c0,0-0.1-1.2,0.3-1.3c0,0,1-0.2,1.1,0.7c0,0,0.2-0.6,0.4-0.9
			c0,0,0.9,0.1,0.9,0.7c0,0,0.2-0.7,0.5-1c0,0,2.3-0.7,2.6-0.5C147.1,132.7,146.1,132.5,146.1,132.3z"/>
	</g>
	<ellipse  display="none" cx="130.6" cy="131.5" rx="5.2" ry="4.7"/>
	<g>
		<path  d="M197,129.7C197,129.7,197.1,129.7,197,129.7L197,129.7C197,129.6,197,129.6,197,129.7z"/>
		<path  d="M195.9,130.4C195.9,130.4,195.9,130.4,195.9,130.4c0-0.1-0.1-0.2-0.3-0.3
			C195.6,130.2,195.7,130.3,195.9,130.4z"/>
		<path  d="M196.6,131.8c0.3-0.7-0.5-1.3-0.5-1.3c0.7,0.1,0.8,1.2,0.8,1.2s0,0.3,0.1,0s-0.7-1.5-0.7-1.5l1.6,1
			c-0.2-0.5-0.8-1.2-0.9-1.4c-0.4,0.3-0.7,0.5-1.1,0.7C196.7,131.1,196.6,131.8,196.6,131.8z"/>
		<path  d="M183,123.4C183,123.4,183,123.3,183,123.4C183,123.3,183,123.3,183,123.4z"/>
		<path  d="M183,123.4C183,123.4,183,123.3,183,123.4C183,123.3,183,123.3,183,123.4z"/>
		<path  d="M187.9,122.9C187.9,123,187.9,123,187.9,122.9C188,123,187.9,123,187.9,122.9z"/>
		<path  d="M182.1,122.7c0,0,0.1,0,0.1,0C182.3,122.6,182.2,122.7,182.1,122.7z"/>
		<path  d="M192.3,132.4l0,0.2C192.3,132.5,192.3,132.4,192.3,132.4z"/>
		<path  d="M185.7,122.6c0.1-0.1,0.3-0.2,0.4-0.2C186.1,122.4,185.9,122.5,185.7,122.6z"/>
		<path  d="M188.1,123.2L188.1,123.2C188.1,123.2,188.1,123.2,188.1,123.2z"/>
		<path id="rightBorder" d="M201.5,131.1c0.5-0.9-2.1-3-2.1-3l-0.8-0.5c0.2-0.1,1.4,0.2,1.4,0.2c-0.2-0.3-1.6-0.5-1.6-0.5
			c0,0,0,0,0.1,0c0.5-0.1,1.3,0.1,1.3,0.1c-0.5-0.4-2.6-0.8-2.6-0.8c0.7-0.3,1.5,0.3,1.5,0.3c-0.2-0.7-2.4-0.8-2.4-0.8
			c0.1-0.1,0.6-0.1,0.8-0.1c-0.5-0.1-2-0.3-2-0.3c-0.2-0.5,0.8-0.4,0.8-0.4l-3-0.4c0,0,0,0,0,0c1.7-0.3,3.1,0,3.1,0
			c-1.9-1-3.6-0.2-3.6-0.2c0.1-0.2,0.6-0.4,0.6-0.4c-0.4-0.2-0.8,0.3-0.8,0.3c0-0.3,0.4-0.5,0.4-0.5c-0.5-0.1-0.8,0.4-0.8,0.4
			c-0.2-0.4,0.3-0.6,0.3-0.6c-0.5-0.1-0.9,0.7-0.9,0.7c-0.3-0.7,0.7-1,0.7-1c-1,0-1.2,0.6-1.2,0.6c-0.2-0.6,0.6-0.8,0.6-0.8
			c-0.5-0.2-1.3,0.5-1.3,0.5c0-0.6,0.4-0.7,0.4-0.7c-0.5,0-0.9,0.6-0.9,0.6c0-0.5,0.4-0.7,0.4-0.7c-0.6,0-0.9,0.6-0.9,0.6
			c0-0.5,0.5-0.8,0.5-0.8c-0.3,0.1-0.9,0.8-0.9,0.8s0,0.2-0.1,0s0.3-0.6,0.3-0.6l-0.7,0.5c-0.1-0.3,0.2-0.6,0.2-0.6l-0.6,0.4
			c0-0.2,0.1-0.3,0.1-0.4l-0.5,0.3l0.1-0.4l-0.6,0.3c0.3-0.5,0.7-0.5,0.8-0.5c-0.6-0.1-1.1,0.4-1.1,0.4c0.1-0.5,0.9-0.7,0.9-0.7
			c-0.8-0.2-1.5,0.8-1.5,0.8c0.2-0.5,0.9-0.9,0.9-0.9c-0.6,0-1.2,0.8-1.2,0.8c0-0.6,0.6-0.8,0.6-0.8c-0.7,0-1,0.9-1,0.9
			c-0.1-0.4,0.1-0.7,0.3-0.8c-0.4,0.3-0.7,0.8-0.7,0.8c0.1-0.4,0.5-0.7,0.5-0.7c-0.6,0.2-0.9,0.8-0.9,0.8s-0.1,0.4,0-0.1
			s0.7-0.9,0.7-0.9c-0.8,0.3-1.1,0.9-1.1,0.9c0.1-0.5,0.2-0.8,0.2-0.8c-0.3,0.3-0.4,0.5-0.4,0.7c0-0.4-0.1-0.7-0.1-0.7
			c-0.3,0.8-0.6,1-0.6,1s0,0.2-0.1,0c-0.1-0.1-0.1-0.2-0.1-0.2c0,0,0,0,0,0c0,0,0,0,0,0c0,0,0,0,0,0c0,0,0,0,0,0
			c-0.1,0.1-0.7,0.6-0.7,0.6c0.2-0.7,1.2-1.3,1.2-1.3c-1,0-1.8,1.5-1.8,1.5c-0.1-1.1,1.3-1.7,1.3-1.7c-1.5,0.3-1.8,1.9-1.8,1.9
			c0-1.2,0.7-1.6,1-1.7c-1.1,0.3-1.4,2-1.4,2c-0.2-1.2,1-2.1,1-2.1c-1.3,0.5-1.4,2.2-1.4,2.2c-0.3-1.3,1-2.2,1-2.2
			c-1.5,0.7-1.3,2.2-1.3,2.2c-0.2-1.2,0.8-2,0.8-2c-1,0.4-1,2.2-1,2.2c-0.2-0.9,0.5-2.1,0.5-2.1c-0.8,0.3-0.9,2.2-0.9,2.2
			c-0.1-1.3,0.5-2.4,0.5-2.4c-0.4,0.6-0.6,1.1-0.7,1.4c0-0.3,0.1-0.5,0.1-0.5s0.2-0.4-0.1,0c-0.2,0.4-0.3,1.7-0.3,1.7
			c-0.1-0.2,0-1.5,0-1.5c-0.2,0.3-0.2,1.7-0.2,1.7c-0.1-0.2-0.2-1.5-0.2-1.5c-0.3,0.2,0.1,2.1-0.2,1.7c-0.3-0.4-0.3-0.7-0.3-0.7
			c-0.2,0.4,0.1,0.9,0.1,0.9c0,0-0.1-0.2-0.2-0.4c0,0,0,0,0,0c0,0,0,0,0,0c-0.1-0.2-0.2-0.5-0.2-0.5c-0.1,0.1,0,0.4,0.1,0.6
			c-0.3,0.3-0.4,0.5-0.4,0.6c-0.1-0.5,0-0.8,0-0.8s0.2-0.3-0.1,0s-0.4,1.3-0.4,1.3c-0.1-0.1,0-0.9,0-0.9s0.1-0.2-0.1,0
			s-0.2,1.5-0.2,1.5s0,0-0.1-0.1c-0.1-0.1-0.1-0.7-0.1-0.7c-0.2,0.2-0.2,1-0.2,1c-0.3-0.1-0.3-0.9-0.3-0.9s-0.3,1.8-0.5,1.6
			c-0.2-0.2,0-0.8,0-0.9s-0.3,0.9-0.3,0.9l-0.1,0.9c0.7,0.7,4.4,2.2,4.6,2.2c-0.2-0.1-0.6,0.3-0.6,0.3c0.9,0.2,1.2-0.1,1.2-0.2
			c-0.1,0.1,0,0.4,0,0.4c0-0.2,0.6-0.4,0.6-0.4l-0.3,0.8c0.2-0.4,0.7-0.7,0.7-0.7v0.5c0.1-0.3,0.3-0.5,0.3-0.5
			c0.2,0.2,0.2,0.6,0.2,0.6c0.3-0.5,0.7-0.4,0.7-0.4c0.2,0.2-0.1,0.7-0.1,0.7l0.8-0.5c0,0,0.3-0.4,0.1,0c-0.2,0.4-0.5,0.4-0.5,0.4
			s1.9-0.3,1.9-0.2c0,0.1-1.5,0.5-1.5,0.5s-0.1,0,1.6-0.2l-0.6,0.4c0.3,0.2,2.1-0.5,2.1-0.5c-0.1,0.2-1,1.2-1,1.2
			c0.3-0.1,1.4-1.1,1.4-1.1c0.1,0.1-1,1.8-1,1.8c0.5-0.3,1.3-1.6,1.3-1.6c0,0.9-0.6,1.2-0.6,1.2c0.6-0.3,1.1-1.4,1.1-1.4
			c0.1,0.3-0.5,1.3-0.5,1.3c0.2,0,0.5-0.6,0.7-0.9c-0.1,0.5-0.3,0.8-0.3,0.8c0.4-0.2,0.5-0.6,0.5-0.6s-0.1,0,0.1-0.1
			c0.2-0.1,0.4-0.2,0.4-0.2s0,0,0.1,0.1s0.1,0.2,0.1,0.2l0.5-0.2c-0.2,0.2-0.2,0.2-0.2,0.2c0.5,0,1.8-0.5,1.8-0.5s-0.5,0.5-0.2,0.5
			c0,0,0.1,0,0.1,0c0.4-0.1,1.3-0.9,1.3-0.9c0,0.1-0.5,0.7-0.5,0.7c0.5-0.2,0.8-0.9,0.8-0.9c0.2,0,0.3,0.2,0.3,0.3l-0.1-0.5l0.4,0.5
			v-0.6l0.3,0.4l-0.1-0.6l0.6,0.5c0-0.4,0-0.5,0-0.5c0.1,0,0.4,0.7,0.4,0.7c0.1-0.3-0.2-0.9-0.2-0.9c0.1,0,0.5,0.7,0.5,0.7
			c0.1-0.6-0.2-0.8-0.2-0.8s-0.1,0,0.2-0.1c0.2-0.1,0.5,0.8,0.5,0.8l-0.2-0.8c0.1,0,0.4,0.5,0.4,0.5c0.1-0.2-0.1-0.6-0.1-0.6
			c0.1-0.1,0.3,0.3,0.3,0.3c0-0.3-0.2-0.5-0.2-0.5s0,0,0.2-0.1c0.2-0.1,0.7,0.9,0.7,0.9c0.1-0.2-0.6-1-0.6-1s0,0,0.2-0.1
			c0.2-0.1,0.4,0.6,0.4,0.6c0.2-0.3-0.3-0.7-0.3-0.7c0.2-0.2,0.5,0.7,0.5,0.7c0-0.4-0.2-0.7-0.2-0.7c0.3-0.2,0.5,0.5,0.5,0.5
			c0-0.2-0.2-0.5-0.4-0.7c-4.8,2.6-12,1.6-15.1,1c-3.7-0.7-5.6-2.4-5.6-2.4c5.9-6.1,11.6-5.4,11.6-5.4c8.6,1.5,11.6,4.9,11.6,4.9
			c-0.4,0.4-0.8,0.8-1.3,1.2l0.6,0.4l0.8,0.8l-0.5-1.2l0.7,1l-0.3-1.3c0.4-0.2,0.6,1.1,0.6,1.1c0.1-0.3-0.2-1.3-0.2-1.3
			c1.1,1.2,0.9,2.1,0.9,2.1c0.5-1.1-0.3-1.9-0.5-2.1l0.7,0.6c-0.1-0.3-0.6-1.1-0.6-1.1c0.3-0.1,1.9,2.4,1.9,2.4
			c0.3-0.9-1.9-2.7-1.9-2.7C201.5,130,201.5,131.1,201.5,131.1z M177.6,126.3c0-0.3,0.1-0.5,0.2-0.6c0.1,0.2,0.1,0.4,0.1,0.4
			L177.6,126.3z M198.2,127.5C198.1,127.5,198.1,127.5,198.2,127.5L198.2,127.5z M198.3,127.4C198.3,127.4,198.3,127.4,198.3,127.4
			C198.3,127.4,198.3,127.4,198.3,127.4z"/>
		<path  d="M197.3,126.2C197.4,126.2,197.4,126.2,197.3,126.2L197.3,126.2z"/>
		<path  d="M197.2,126.1L197.2,126.1c0,0,0.1,0.1,0.2,0.1C197.3,126.2,197.3,126.2,197.2,126.1z"/>
		<path  d="M197.2,126.1c0,0-0.1,0-0.1,0C197.1,126.1,197.2,126.1,197.2,126.1C197.2,126.1,197.2,126.1,197.2,126.1z"
			/>
	</g>
	<path stroke="#000000" stroke-width="5.000000e-002" stroke-miterlimit="10" d="M220.9,147.8c0,0-2.7,15.8,1,22.2
		c0,0,6-1.8,4.8-11.1c0,0,2.7-8.8,2.2-11.1l-1.8-6.8c0,0,0.2-9.5,3-14.1c0,0-1.8-4.7-6.3-3.2c0,0-2.8,9.2-2.8,12.2l0.6,0
		c0,0-0.1-4.5,2.8-11.9c0,0,3.8-1.1,5.3,2.8c0,0-2.9,4.6-2.9,14.5c0,0,1.9,5.6,1.7,7.3c0,0,1,0.6-2.2,9.8c0,0,1.9,8.3-3.8,10.8
		c0,0-3.7-5.7-1.1-21.3L220.9,147.8z"/>
	<path  fill="#4D4D4D" stroke="#000000" stroke-width="5.000000e-002" stroke-miterlimit="10" d="M221.9,135.8l2-3.4
		c0,0,2.6-3.5,3.1-2.7l0.5-2.1c0,0,1.4-1.2,1.3,0l-0.6,2.6l-1.5,10.3l-2.4-8l-2,3.4L221.9,135.8z"/>
	<path  fill="#4D4D4D" stroke="#000000" stroke-width="5.000000e-002" stroke-miterlimit="10" d="M220.3,159.8
		c0,0,0.2,2.2,0.9,4.7c0,0-0.6-10.4,0-11.1c0,0,3.4,2.3,3.7,4.1c0,0.1,0,0.2,0,0.3c0,1.8,3.5-6.6,3-9.4c0,0,0.3-2.1-2.6-7.1
		c0,0-1.9,3.4-2.6,3c0,0-1-2.1-1.5-3.4c-0.1-0.4-0.2-0.7-0.2-0.9c0-0.8-2.3,7.6,0.8,7.7l-0.7,0.1
		C221.2,147.9,219.5,157.1,220.3,159.8"/>
	<path  stroke="#000000" stroke-width="5.000000e-002" stroke-miterlimit="10" d="M99.6,135.9L99,130c0,0-2-2.1-3,0
		c-0.6,1.2-1.3,2.9-1.3,2.9s0,0.2,0,0.5c0.2,2.3,1.2,11.9,4.5,17.1c0,0-0.6,7.3,2.6,11.4c0,0-0.6,6.6,0.3,8.2c1,1.6,1,1.6,1,1.6
		l-0.8-3.4c0,0-0.5-5.6,0.2-5.9c0,0-3.7-4.3-2.8-12c0,0-3.5-3.4-4.6-17.5l1.4-2.7c0,0,1.4-1.2,1.8,0.5L99.6,135.9z"/>
	<path  fill="#4D4D4D" stroke="#000000" stroke-width="5.000000e-002" stroke-miterlimit="10" d="M101.7,145.9
		c0,0-4,7.4,0.8,15.7l1-7.5C103.5,154.1,102.4,147.2,101.7,145.9z"/>
	<path  fill="#4D4D4D" stroke="#000000" stroke-width="5.000000e-002" stroke-miterlimit="10" d="M100.8,142.8
		l-1.3-4.7c0,0-3.7-4.4-3.7-4.8c0-0.3-0.4,5.5,3.1,15.2C98.9,148.5,100.6,145.3,100.8,142.8z"/>
	<path  stroke="#000000" stroke-width="5.000000e-002" stroke-miterlimit="10" d="M97.8,96.3c0,0-4.5,5.7,0.8,33.3
		L99,130c0,0-8.3-29.2,5.7-48.2c0,0,3.9-10.2,18.8-24.9c0,0,17.8-13.4,32.2-11.8c0,0,18.6-0.2,35.5,11.7c0,0,17,12.3,20.8,23.1
		c0,0,5.3,5,10,16.6c0,0,3.6,12.1,1.4,27.3c-2.2,15.2,0.4,0,0.4,0l0.3-1.2c0,0,1.2-19.8-1.7-26.5c-2.9-6.7-9-18-10.6-18.3
		c-1.6-0.3-4.1-13.8-29.8-27.1s-47.4-1.7-47.4-1.7s-17.5,9.9-24.2,21.3C110.3,70.2,95.7,93.5,97.8,96.3z"/>
	<path  stroke="#000000" stroke-width="5.000000e-002" stroke-miterlimit="10" d="M139.7,188.5c0,0,2.8,4.6,11.5,7.1
		c0,0,22.4,1.4,26-3.6c0,0,8.5-6.7,8.5-7.8c0,0-11.1,10.1-13.6,9.8c0,0-19.9,2.9-20.8,0.7c0,0-6.8-1.7-10.9-6.3H139.7z"/>
	<path  stroke="#000000" stroke-width="5.000000e-002" stroke-miterlimit="10" d="M146,191.3c0,0-0.9-0.6-0.4-1.9H145
		C145,189.4,145.1,190.9,146,191.3z"/>
	<path  stroke="#000000" stroke-width="5.000000e-002" stroke-miterlimit="10" d="M144,189.4c0,0,0.5,1.5,2,2.9
		c0,0-1.6-0.9-2.8-2.9H144z"/>
	<path  stroke="#000000" stroke-width="5.000000e-002" stroke-miterlimit="10" d="M158.6,194.5c0,0-2.4-2.8-1.7-5.4
		l-1.3-0.3C155.7,188.8,156.4,192.4,158.6,194.5z"/>
	<path  stroke="#000000" stroke-width="5.000000e-002" stroke-miterlimit="10" d="M140.6,186.5l2.8-0.8
		c0,0,8.7,0,12.5-0.6c0,0,4.8,1.9,8.7-0.6c0,0,13,0.5,19-1.1c6.1-1.5,0,0,0,0l0,0.2c0,0-13.1,2.3-18.8,1.2c0,0-4.5,2.3-9.1,0.6
		c0,0-7.8,0.6-12.3,0.5l-2.8,0.8V186.5z"/>
	<path  stroke="#000000" stroke-width="5.000000e-002" stroke-miterlimit="10" d="M174.3,127.5l-1.2-1.3
		c0,0,2-2.6,7.1-4.7c5.1-2.1,0.4,0,0.4,0s16.8-1.6,24.8,7.7c0,0-7.5-5.4-8.9-4.9c0,0-8.4-3.6-16.1-1.7
		C180.4,122.4,173.5,125.6,174.3,127.5z"/>
	<path  fill="#808080" d="M111.5,150.8c0,0,1.5-5,3.3-4.8c0,0,1-1.1,2.2-1.8c0.9-0.5,2-0.7,2.8,0.2
		c0,0,23,4.6,26.3-8.9l-0.6-1.7c0,0-8.3,11.3-16.7,8.5c0,0-5.7,2.3-8.2,1.4c0,0-3.5-1.4-5.8,1.1c0,0-3.6,3.2-3.3,5
		C111.9,151.6,111.5,150.8,111.5,150.8z"/>
	<path fill="#808080" d="M202,127.9l1.9,1.8l1.9,0.5c0,0,4.7-3.1,6.3-1.7c0,0-2.7-1.8-6.3,1.1l-1.4-0.5L202,127.9z"
		/>
	<path  fill="#808080" d="M206.5,132.9c0,0,1.3-2,4.8-0.5c0,0-6-3.2-7.8-2.2c0,0,1.9,0.2,2.7,1.3
		c0,0-7.2,8.2-14.6,5.9C191.5,137.4,197,140.6,206.5,132.9z"/>
	<path  fill="#808080" d="M170.6,134.9c0,0,4.8,5.8,10.7,7.8c5.8,2.1,11.6-2.8,11.6-2.8s8.1-0.6,9.6,0.5s0-0.5,0-0.5
		s-5.1-2.8-16.2-0.9C186.3,139.1,181.5,142.3,170.6,134.9z"/>
	<path  fill="#808080" d="M135.3,123.7c0,0,12.6,4.5,12.3,8.7c0,0,1.8-1.4,1.3-3.3C148.9,129,145.8,123.1,135.3,123.7
		z"/>
	<path fill="#999999" d="M172.6,129.1c0,0,0.8,1.2,5.3,2.4c0,0-1.6,1-4.8,0C173.1,131.5,170,129.8,172.6,129.1z"/>
	<path fill="#808080" d="M117.1,130.9c0,0-6.3,8.2-10.2,5.3c0,0,2,2.5,6.3,0.8S117.1,130.9,117.1,130.9L117.1,130.9"
		/>
	<path  fill="#808080" d="M109.5,139.1c0,0,7.3-3.5,7.5-4.6s0,1.4,0,1.4s-3.4,2.7-5.1,3.2H109.5z"/>
	<path d="M134.5,95.8c0,0,48.8-5.3,53.7-1.2l-0.3,0.6c0,0,3.9-0.8-7.9-1.6c0,0-17.8-1-45.3,2.6L134.5,95.8z"/>
	<path  d="M129.3,85.9c0,0,28.8-3.4,38-1.7C167.3,84.2,159.9,81.4,129.3,85.9z"/>
</g>
<g>
	<polygon points="45.2,275.1 49.7,287.5 51.8,289.5 47.1,275.1 	"/>
	<path  d="M71.4,304.4"/>
	<path  d="M49.9,260.3c0,0,8.7-4.2,9.3-6.5L49.9,260.3z"/>
	<path  fill="none" stroke="#000000" stroke-width="5.000000e-002" stroke-miterlimit="10" d="M85.7,273.4
		c0.8-0.3,0-1.5,0-1.5S84.9,273.8,85.7,273.4z"/>
	<path  d="M74,266.4c0,0,14,28.2,13.2,45.4c0,0,0,1.1-0.1,3.1c0,0.1,17.2,8,17.2,7.9c0.4-4.7,0.4-8.7-0.1-11.8
		l-1.7,0.8c0,0-0.5,3.8-1.4,9.6c0,0.1-12.5-5.8-12.5-5.8l0.1-3.9c0,0-4-28.5-12.7-46.3l-5.8-10.3L74,266.4z"/>
	<path  d="M66.5,248.9c0,0,30.8,38.5,33.1,40.5c2.3,2,2.8,1.2,2.8,1.2l-6-27.7l-6.3,3.7l4.2-22c0,0-6.4,1-6.8,2.3
		s-1.3-2.3-1.3-2.3h-2.7c0,0-4.2,3.2-5.2,5.2s-3.2-0.7-3.2-0.7l-1.3,2.5l-6.2-4.8L66.5,248.9z"/>
	<path  d="M102.4,235.6c0,0,2.3,46.3,6,57.7h2.3c0,0-8.2-56.3-6.8-57.7H102.4z"/>
	<path  d="M120.4,294.4c0,0,4.8,21.6,8.7,28.9c0,0-4.8-24.6-8.7-30.1C116.5,287.8,120.4,294.4,120.4,294.4z"/>
	<path  d="M134.5,316.1c0,0,7,8.8,13.9,17c0.1,0.1,5.1,0.5,5,0.4c-7.5-8.2-16.2-17.7-16.9-18.2c-1.2-0.8-2,1.5-2,1.5
		V316.1z"/>
	<path  d="M110.7,229.4c0,0-0.4,0.3-0.8,1.2c-1.6,3.3-3.9,14.7,8.8,50.2c0,0,31.5,49.4,43.4,48.3
		c0,0,13,1.4,26.5-15.6c0,0,37.2-62.8,32.7-77.8l-2-12.7c0,0,3.2,9.2,0,19.5c0,0-0.3,11-21.3,50.8S162,326.9,162,326.9
		s-15.9-6.1-36.2-38.8c0,0-8.8-7.7-12.2-31.1c0,0-5-20.4-3-26.3"/>
	<path  d="M219.5,224.1c0,0,7.2-0.7,3.5,34.8l-7.3,32.2c0,0,0.2,15,0.6,32.1c0,0.1,1.7-0.5,1.7-0.6
		c-0.1-4.5,0-7.4,0.4-7.8c0,0,1.4-40.2,3.2-39l2.5-17.7c0,0,3.3-24.2,1-28.7C225,229.4,221,221.5,219.5,224.1z"/>
	<path  d="M220.8,257.1c0,0-14.8,36.8-18.1,40.8s0-0.8,0-0.8s-4.5,18.5-5,22.3c0,0,5.8-22.2,6.7-22
		c0,0,4.4-8.3,7.4-13.7c0.1-0.2,0.2-0.3,0.3-0.5c1.3-2.3,2.3-3.9,2.5-3.8L220.8,257.1z"/>
	<path  d="M204.9,304.4c0.3,0.4,8.3-23.1,8.3-23.1l-5.1,22.2c0,0-1.8,11.5-3.5,23.7c0,0.1-2.8,0.9-2.8,0.8
		C203.2,315.8,204.6,304.1,204.9,304.4z"/>
	<path  fill="none" stroke="#000000" stroke-width="5.000000e-002" stroke-miterlimit="10" d="M227.2,348.9"/>
	<path  d="M229,288.3c0,0,1.7,13.7,4.2,27.2c0,0.1,1.3-0.6,1.3-0.8c-0.3-1.1-0.5-1.9-0.8-2.1c0,0-3.6-20-0.9-19.2
		L229,288.3z"/>
	<path  d="M268.9,265.6c0,0-6.7,7.7-6.2,29.8c0,0.1-2.9,2.5-2.9,2.3C259,285.7,261,273.6,268.9,265.6z"/>
	<path  d="M276.7,262.9c0,0-6.8,6.5-7.5,26.5c0,0.1-2.4,2.4-2.4,2.3C266.8,279.7,269.2,268.5,276.7,262.9z"/>
	<path  d="M278,280.3c1.3-7.1,3.7-14.2,7.8-20.2c0,0-9.5,3.5-11.1,23.9C274.7,284.2,278,280.5,278,280.3z"/>
	<path fill="#999999" d="M49.9,276c0,0,2.5,7.5,5.5,16.8c0,0.1,14.8,11.9,14.8,11.9c1.6,0.1,2.7-0.1,2.7-0.1
		S65.8,287.3,49.9,276z"/>
	<path  fill="#999999" d="M59.2,280.2c-0.8-1,1.4-14.4,1.4-14.4s8.9,8.2,12.3,15.6c0,0,6.6,12.3,8.1,30.3
		c0,0.1-4.9-3-5-3.1C72.9,300.7,67.7,291.2,59.2,280.2z"/>
	<path  fill="#999999" d="M102.4,235.6c0,0-4.4,0.3-3.9,6.1c0,0,7.6,44,7.4,81.8c0,0.1,2.2,1,2.3,0.9
		c1.2-10.5,1.7-21.8,0.3-31.1C108.4,293.3,99.3,235.5,102.4,235.6z"/>
	<path  fill="#999999" d="M95.2,288.3c0,0-0.6,13.6-1.5,30c0,0.1,2.5,1.3,2.5,1.3c1.6-14.1,2.7-25.9,2.2-28.5
		L95.2,288.3z"/>
	<path  fill="#999999" d="M195,316.1c0,0-3,7.3-7.1,15.1c0,0.1-3.5,0.6-3.5,0.5C187.4,327.8,190.9,322.6,195,316.1z"
		/>
	<path  fill="#999999" d="M178.3,332.7c5.4-3.8,11.6-10,18.4-20.1c0,0-12.8,15.3-27.7,20.9
		C168.9,333.5,178.2,332.7,178.3,332.7z"/>
	<path  fill="#999999" d="M197.7,319.4c0,0-1.3,4.2-3.3,10.6c0,0,0.9,0,0.9,0l0-0.1L197.7,319.4z"/>
	<path  fill="#999999" d="M258.2,293.3c0,0-0.2,2.4-0.5,6.3c0,0.1,0.3,0,0.3-0.1
		C257.5,295.9,257.6,293.7,258.2,293.3z"/>
	<path  d="M160.9,333.9c-2.4,0-4.8-0.1-7.2-0.2c-1.7-0.1-3.3-0.2-5-0.3c-14.1-1.1-27.7-4.1-40.6-8.8
		c-0.7-0.3-1.5-0.5-2.2-0.8c-5.9-2.2-11.7-4.8-17.2-7.8c-0.5-0.3-1-0.5-1.5-0.8c-5.3-2.8-10.4-6-15.3-9.4c-0.5-0.4-1.1-0.8-1.6-1.2
		c-0.1-0.1-0.2-0.1-0.3-0.2c-5-3.6-9.9-7.5-14.5-11.7c-1.7-1.6-3.4-3.2-5.1-4.8C19.3,257.6,0,214.6,0,166.9C0,74.9,72.2,0,160.9,0
		c88.7,0,160.9,74.9,160.9,166.9c0,86.1-63.1,157.2-143.9,166c-3.1,0.3-6.2,0.6-9.4,0.7C165.9,333.8,163.4,333.9,160.9,333.9z
		 M160.9,0.9C72.7,0.9,0.9,75.4,0.9,166.9c0,91.5,71.7,166,159.9,166c59.2,0,111.1-33.6,138.7-83.4c13.5-24.3,21.2-52.6,21.2-82.6
		C320.8,75.4,249.1,0.9,160.9,0.9z"/>
</g>
</svg>
